# xmcd CD database file
#
# Track frame offsets:
#	150
#	4116
#	9410
#	68795
#
# Disc length: 1035 seconds
#
# Revision: 0
# Processed by: cddbd v1.5.1PL0 Copyright (c) Steve Scherf et al.
# Submitted via: CDex 1.51
#
DISCID=24040904
DTITLE=マリアコーポレーション - SUPER SUGIZAKI　5　盛運余徳獲得法
DYEAR=2004
DGENRE=瞑想音楽
TTITLE0=盛運余徳獲得法・ナレーション
TTITLE1=盛運余徳獲得法・使用方法説明
TTITLE2=盛運余徳獲得法・実践編
TTITLE3=盛運余徳獲得法・説明
EXTD=YEAR: 2004
EXTT0=
EXTT1=
EXTT2=
EXTT3=
PLAYORDER=
